<svg xmlns="http://www.w3.org/2000/svg" width="28.023" height="28.629" viewBox="0 0 28.023 28.629">
  <g id="Grupo_7" data-name="Grupo 7" transform="translate(-1242.99 527.314)">
    <path id="Vector-1" d="M14.012.239a14.586,14.586,0,0,1-1.066,5.478,14.341,14.341,0,0,1-3.037,4.644,13.993,13.993,0,0,1-4.545,3.1A13.751,13.751,0,0,1,0,14.553V.239Z" transform="translate(1242.989 -513.239)" fill="#a8bbc6"/>
    <path id="Vector-2" d="M1,15.228A14.581,14.581,0,0,1,2.064,9.749,14.336,14.336,0,0,1,5.1,5.1,13.99,13.99,0,0,1,9.649,2,13.748,13.748,0,0,1,15.012.914V15.228Z" transform="translate(1256.002 -528.228)" fill="#45525b"/>
    <path id="Vector-3" d="M.989,15.228A14.581,14.581,0,0,1,2.054,9.75,14.336,14.336,0,0,1,5.091,5.105,13.99,13.99,0,0,1,9.636,2,13.748,13.748,0,0,1,15,.914V15.228Z" transform="translate(1242.002 -528.228)" fill="#fe7e02"/>
    <path id="Vector" d="M15,.239a14.474,14.474,0,0,1-4.1,10.122A13.86,13.86,0,0,1,.989,14.553V.239Z" transform="translate(1256.011 -513.239)" fill="#f9b24e"/>
  </g>
</svg>
