<?xml version="1.0" encoding="utf-8"?>
<!-- Generator: Adobe Illustrator 26.3.1, SVG Export Plug-In . SVG Version: 6.00 Build 0)  -->
<svg version="1.1" id="Camada_1" xmlns="http://www.w3.org/2000/svg" xmlns:xlink="http://www.w3.org/1999/xlink" x="0px" y="0px"
	 viewBox="0 0 24 24" style="enable-background:new 0 0 24 24;" xml:space="preserve">
<path d="M19.5,0h-15C3.7,0,3,0.7,3,1.5c0,0,0,0,0,0v21C3,23.3,3.7,24,4.5,24c0.3,0,0.7-0.1,0.9-0.3l6.6-5.3l6.6,5.3
	c0.6,0.5,1.6,0.4,2.1-0.2c0.2-0.3,0.3-0.6,0.3-0.9v-21C21,0.7,20.3,0,19.5,0C19.5,0,19.5,0,19.5,0z M18,19.4l-5.1-4.1
	c-0.5-0.4-1.3-0.4-1.9,0L6,19.4V3h12V19.4z"/>
</svg>
